# Blender 4.5.2 LTS
# www.blender.org
mtllib le.mtl
o Cylinder
v 7.075395 0.147424 -2.704648
v 7.075395 0.147424 -3.813770
v 7.374557 0.244700 -2.704648
v 7.374557 0.244700 -3.813770
v 7.578738 0.505644 -2.704648
v 7.578738 0.505644 -3.813770
v 7.623111 0.847408 -2.704648
v 7.623111 0.847407 -3.813770
v 7.493587 1.161484 -2.704648
v 7.493587 1.161483 -3.813770
v 7.231291 1.348155 -2.704648
v 7.231291 1.348155 -3.813770
v 6.919499 1.348155 -2.704648
v 6.919499 1.348155 -3.813770
v 6.657203 1.161484 -2.704648
v 6.657203 1.161483 -3.813770
v 6.527679 0.847408 -2.704648
v 6.527679 0.847407 -3.813770
v 6.572052 0.505644 -2.704648
v 6.572052 0.505644 -3.813770
v 6.776233 0.244700 -2.704648
v 6.776233 0.244700 -3.813770
v 7.374557 0.154291 -4.017715
v 7.075395 0.070769 -3.967849
v 7.578738 0.378341 -4.151482
v 7.623111 0.671784 -4.326678
v 7.493587 0.941454 -4.487681
v 7.231291 1.101732 -4.583374
v 6.919499 1.101732 -4.583374
v 6.657203 0.941454 -4.487681
v 6.527679 0.671784 -4.326678
v 6.572052 0.378341 -4.151482
v 6.776233 0.154291 -4.017715
v 7.451711 0.051640 -4.264958
v 7.173605 -0.059174 -4.168323
v 7.610339 0.242041 -4.484882
v 7.599126 0.451577 -4.758269
v 7.421632 0.613722 -4.998321
v 7.134210 0.676997 -5.128823
v 6.828115 0.621311 -5.108342
v 6.600530 0.464346 -4.943380
v 6.523711 0.255936 -4.686312
v 6.622047 0.062249 -4.418755
v 6.864319 -0.055219 -4.225656
v 7.488065 -0.274177 -4.428920
v 7.209960 -0.356415 -4.307038
v 7.646693 -0.146733 -4.690409
v 7.635479 -0.014545 -5.008484
v 7.457986 0.080418 -5.282159
v 7.170564 0.108007 -5.424543
v 6.864469 0.059461 -5.390432
v 6.636884 -0.049806 -5.190654
v 6.560065 -0.185103 -4.888638
v 6.658401 -0.303474 -4.580272
v 6.900673 -0.367337 -4.363460
v 7.519074 -0.577403 -4.525921
v 7.240969 -0.634318 -4.390352
v 7.677702 -0.503351 -4.807230
v 7.666489 -0.435670 -5.144965
v 7.488995 -0.395849 -5.431897
v 7.201573 -0.396532 -5.576928
v 6.895478 -0.437501 -5.534012
v 6.667893 -0.505749 -5.316772
v 6.591074 -0.579608 -4.994184
v 6.689411 -0.635628 -4.668664
v 6.931682 -0.656023 -4.443564
v 7.545632 -0.989356 -4.528696
v 7.267527 -1.016024 -4.384104
v 7.704260 -0.977049 -4.819328
v 7.693047 -0.983010 -5.163726
v 7.515553 -1.005347 -5.452546
v 7.228132 -1.036968 -5.594090
v 6.922037 -1.067833 -5.543418
v 6.694451 -1.088144 -5.316618
v 6.617632 -1.091451 -4.985699
v 6.715969 -1.076705 -4.655724
v 6.958240 -1.048586 -4.431457
vn 0.3092 -0.9510 -0.0000
vn 0.7876 -0.6162 -0.0000
vn 0.9917 -0.1288 -0.0000
vn 0.9245 0.3812 -0.0000
vn 0.5798 0.8147 -0.0000
vn -0.0000 1.0000 -0.0000
vn -0.5798 0.8147 -0.0000
vn -0.9245 0.3812 -0.0000
vn -0.9917 -0.1288 -0.0000
vn -0.9192 0.3736 -0.1245
vn -0.7876 -0.6162 -0.0000
vn -0.3092 -0.9510 -0.0000
vn -0.0000 -0.0000 1.0000
vn 0.3884 -0.7467 0.5400
vn -0.5654 0.7849 -0.2536
vn -0.0000 0.9524 -0.3049
vn 0.5654 0.7849 -0.2536
vn 0.9192 0.3736 -0.1245
vn 0.2953 -0.8658 0.4040
vn 0.9910 -0.1261 0.0449
vn -0.2953 -0.8658 0.4040
vn 0.7744 -0.5870 0.2359
vn -0.7744 -0.5870 0.2359
vn -0.9910 -0.1261 0.0449
vn 0.9967 0.0802 0.0086
vn -0.9510 0.2412 -0.1935
vn 0.4990 0.6660 -0.5544
vn 0.8320 -0.4406 0.3371
vn -0.9771 -0.1705 0.1273
vn -0.0902 0.7683 -0.6338
vn 0.9988 -0.0402 0.0287
vn -0.7239 -0.5575 0.4063
vn -0.6424 0.5946 -0.4836
vn 0.8866 0.3549 -0.2966
vn -0.2141 -0.7970 0.5648
vn 0.8478 0.2134 -0.4855
vn -0.6776 -0.3567 0.6432
vn -0.6946 0.2792 -0.6630
vn 0.8487 0.2960 -0.4383
vn -0.1592 -0.4236 0.8917
vn 0.4451 -0.3487 0.8248
vn -0.9695 0.0400 -0.2418
vn 0.4409 0.4403 -0.7821
vn 0.8688 -0.1548 0.4703
vn -0.9562 -0.1876 0.2249
vn -0.1540 0.4417 -0.8838
vn -0.1527 0.0143 -0.9882
vn -0.1522 -0.2892 0.9451
vn 0.4545 -0.2194 0.8633
vn -0.9706 -0.0053 -0.2405
vn 0.4388 0.2898 -0.8506
vn 0.8727 -0.0743 0.4825
vn -0.9552 -0.1496 0.2552
vn -0.1590 0.2707 -0.9494
vn 0.9966 0.0824 -0.0090
vn -0.6754 -0.2552 0.6919
vn -0.6993 0.1522 -0.6985
vn 0.1026 -0.9946 0.0139
vn 0.9982 0.0528 -0.0280
vn -0.6797 -0.0213 0.7332
vn -0.6956 -0.0250 -0.7180
vn 0.8506 0.0569 -0.5227
vn -0.1615 0.0123 0.9868
vn 0.4455 0.0337 0.8946
vn -0.9710 -0.0490 -0.2341
vn 0.4436 0.0459 -0.8950
vn 0.8708 0.0440 0.4897
vn -0.9576 -0.0470 0.2843
vt 1.000000 0.500000
vt 1.000000 1.000000
vt 0.909091 1.000000
vt 0.909091 0.500000
vt 0.818182 1.000000
vt 0.818182 0.500000
vt 0.727273 1.000000
vt 0.727273 0.500000
vt 0.636364 1.000000
vt 0.636364 0.500000
vt 0.545454 1.000000
vt 0.545454 0.500000
vt 0.454545 1.000000
vt 0.454545 0.500000
vt 0.363636 1.000000
vt 0.363636 0.500000
vt 0.272727 1.000000
vt 0.272727 0.500000
vt 0.181818 1.000000
vt 0.181818 0.500000
vt 0.090909 1.000000
vt 0.090909 0.500000
vt -0.000000 1.000000
vt -0.000000 0.500000
vt 0.750000 0.490000
vt 0.879754 0.451901
vt 0.968312 0.349700
vt 0.987557 0.215844
vt 0.931380 0.092833
vt 0.817616 0.019722
vt 0.682384 0.019722
vt 0.568620 0.092833
vt 0.512443 0.215844
vt 0.531688 0.349700
vt 0.620246 0.451901
vt 0.379754 0.451901
vt 0.250000 0.490000
vt 0.120246 0.451901
vt 0.031688 0.349700
vt 0.012443 0.215844
vt 0.068620 0.092833
vt 0.182384 0.019722
vt 0.317616 0.019722
vt 0.431380 0.092833
vt 0.487557 0.215844
vt 0.468312 0.349700
s 0
f 1/1/1 2/2/1 4/3/1 3/4/1
f 3/4/2 4/3/2 6/5/2 5/6/2
f 5/6/3 6/5/3 8/7/3 7/8/3
f 7/8/4 8/7/4 10/9/4 9/10/4
f 9/10/5 10/9/5 12/11/5 11/12/5
f 11/12/6 12/11/6 14/13/6 13/14/6
f 13/14/7 14/13/7 16/15/7 15/16/7
f 15/16/8 16/15/8 18/17/8 17/18/8
f 17/18/9 18/17/9 20/19/9 19/20/9
f 18/17/10 16/15/10 30/15/10 31/17/10
f 19/20/11 20/19/11 22/21/11 21/22/11
f 21/22/12 22/21/12 2/23/12 1/24/12
f 1/25/13 3/26/13 5/27/13 7/28/13 9/29/13 11/30/13 13/31/13 15/32/13 17/33/13 19/34/13 21/35/13
f 23/3/14 24/2/14 35/2/14 34/3/14
f 16/15/15 14/13/15 29/13/15 30/15/15
f 14/13/16 12/11/16 28/11/16 29/13/16
f 12/11/17 10/9/17 27/9/17 28/11/17
f 10/9/18 8/7/18 26/7/18 27/9/18
f 4/3/19 2/2/19 24/2/19 23/3/19
f 8/7/20 6/5/20 25/5/20 26/7/20
f 2/23/21 22/21/21 33/21/21 24/23/21
f 6/5/22 4/3/22 23/3/22 25/5/22
f 22/21/23 20/19/23 32/19/23 33/21/23
f 20/19/24 18/17/24 31/17/24 32/19/24
f 37/7/25 36/5/25 47/5/25 48/7/25
f 31/17/26 30/15/26 41/15/26 42/17/26
f 28/11/27 27/9/27 38/9/27 39/11/27
f 25/5/28 23/3/28 34/3/28 36/5/28
f 32/19/29 31/17/29 42/17/29 43/19/29
f 29/13/30 28/11/30 39/11/30 40/13/30
f 26/7/31 25/5/31 36/5/31 37/7/31
f 33/21/32 32/19/32 43/19/32 44/21/32
f 30/15/33 29/13/33 40/13/33 41/15/33
f 27/9/34 26/7/34 37/7/34 38/9/34
f 24/23/35 33/21/35 44/21/35 35/23/35
f 49/9/36 48/7/36 59/7/36 60/9/36
f 44/21/37 43/19/37 54/19/37 55/21/37
f 41/15/38 40/13/38 51/13/38 52/15/38
f 38/9/39 37/7/39 48/7/39 49/9/39
f 35/23/40 44/21/40 55/21/40 46/23/40
f 34/3/41 35/2/41 46/2/41 45/3/41
f 42/17/42 41/15/42 52/15/42 53/17/42
f 39/11/43 38/9/43 49/9/43 50/11/43
f 36/5/44 34/3/44 45/3/44 47/5/44
f 43/19/45 42/17/45 53/17/45 54/19/45
f 40/13/46 39/11/46 50/11/46 51/13/46
f 62/13/47 61/11/47 72/11/47 73/13/47
f 46/23/48 55/21/48 66/21/48 57/23/48
f 45/3/49 46/2/49 57/2/49 56/3/49
f 53/17/50 52/15/50 63/15/50 64/17/50
f 50/11/51 49/9/51 60/9/51 61/11/51
f 47/5/52 45/3/52 56/3/52 58/5/52
f 54/19/53 53/17/53 64/17/53 65/19/53
f 51/13/54 50/11/54 61/11/54 62/13/54
f 48/7/55 47/5/55 58/5/55 59/7/55
f 55/21/56 54/19/56 65/19/56 66/21/56
f 52/15/57 51/13/57 62/13/57 63/15/57
f 67/36/58 68/37/58 77/38/58 76/39/58 75/40/58 74/41/58 73/42/58 72/43/58 71/44/58 70/45/58 69/46/58
f 59/7/59 58/5/59 69/5/59 70/7/59
f 66/21/60 65/19/60 76/19/60 77/21/60
f 63/15/61 62/13/61 73/13/61 74/15/61
f 60/9/62 59/7/62 70/7/62 71/9/62
f 57/23/63 66/21/63 77/21/63 68/23/63
f 56/3/64 57/2/64 68/2/64 67/3/64
f 64/17/65 63/15/65 74/15/65 75/17/65
f 61/11/66 60/9/66 71/9/66 72/11/66
f 58/5/67 56/3/67 67/3/67 69/5/67
f 65/19/68 64/17/68 75/17/68 76/19/68
